<svg xmlns="http://www.w3.org/2000/svg" xmlns:xlink="http://www.w3.org/1999/xlink" version="1.1" x="0px" y="0px" viewBox="0 0 256 256" enable-background="new 0 0 256 256" xml:space="preserve">
<metadata> Svg Vector Icons : http://www.onlinewebfonts.com/icon </metadata>
    <g><g><path fill="rgb(220 38 38)" d="M113.9,193.5H59c-5.9,0-11.2-4.7-11.2-11.2V128V73.7c0-5.9,4.7-11.2,11.2-11.2h54.9c5.9,0,11.2-4.7,11.2-11.2V35.4c0-5.9-4.7-11.2-11.2-11.2H20.6c-5.9,0-10.6,5.3-10.6,11.2V128v92.7c0,5.9,4.7,11.2,11.2,11.2h93.2c5.9,0,11.2-4.7,11.2-11.2v-16.5C125.1,198.2,120.4,193.5,113.9,193.5z"/><path fill="rgb(220 38 38)" d="M242.5,119.1l-69-69c-7.1-7.1-18.9-1.8-18.9,7.7v28.3c0,5.9-4.7,11.2-11.2,11.2H84.9c-5.9,0-11.2,4.7-11.2,11.2V128v19.5c0,5.9,4.7,11.2,11.2,11.2h58.4c5.9,0,11.2,4.7,11.2,11.2v28.3c0,10,11.8,14.8,18.9,7.7l69-69c2.4-2.4,3.5-5.9,3.5-8.8C246,125.1,245.4,121.5,242.5,119.1z"/></g></g>
</svg>