<svg xmlns="http://www.w3.org/2000/svg" xmlns:xlink="http://www.w3.org/1999/xlink" version="1.1" x="0px" y="0px" viewBox="0 0 256 256" enable-background="new 0 0 256 256" xml:space="preserve">
<metadata> Svg Vector Icons : http://www.onlinewebfonts.com/icon </metadata>
    <g><g><g><path fill="rgb(147 51 234)" d="M119.1,10.5c-6.1,0.7-14,2.8-18.9,5.2C83.7,23.6,74,39,70.4,63.2c-1.4,8.9-1.5,25.7-0.3,33.2c4.6,27.4,17.2,53.2,32,65.3c3.1,2.5,10.4,7.2,11.2,7.2c0.2,0,0.4-0.5,0.4-1.1c0-2.5,2.4-8.6,4.7-12c3.8-5.7,8.6-9.4,15.5-11.9c2.3-0.9,3.9-1,13.1-1.2l10.4-0.2l0.2-10.4c0.2-9.2,0.3-10.8,1.2-13.1c1.8-4.8,4-8.3,7.2-11.7c4.7-4.7,10.8-7.8,17.1-8.7l2.3-0.3l0.5-3.5c2-13.4,0.4-32.7-3.9-45.5c-7.1-21.8-21-34.5-42-38.2C135,10.3,124.4,9.9,119.1,10.5z"/><path fill="rgb(147 51 234)" d="M183,113.8c-4.3,1.5-7.7,4.4-9.5,8.4c-1,2.3-1.1,2.7-1.2,18.7l-0.1,16.4l-16.4,0.1c-16,0.1-16.5,0.2-18.8,1.2c-2.9,1.3-6.3,4.7-7.6,7.7c-0.8,1.8-1.1,3.1-1,5.8c0,5.9,3.1,10.7,8.5,13.3l2.5,1.2l16.4,0.1l16.4,0.1l0.1,16.4c0.1,16,0.2,16.5,1.2,18.8c1.3,2.9,4.7,6.3,7.7,7.6c3.2,1.4,8.2,1.4,11.5,0c3-1.3,6.4-4.7,7.7-7.6c1-2.3,1.1-2.8,1.2-18.8l0.1-16.4l16.4-0.1c16-0.1,16.5-0.2,18.8-1.2c2.9-1.3,6.3-4.7,7.6-7.7c1.4-3.2,1.4-8.3,0-11.6c-1.3-2.9-4.6-6.3-7.6-7.6c-2.3-1-2.7-1.1-18.7-1.2l-16.4-0.1l-0.1-16.4l-0.1-16.4l-1.2-2.5c-2.4-5-7-8.1-12.5-8.5C186,113.2,184.1,113.4,183,113.8z"/><path fill="rgb(147 51 234)" d="M78.2,182.9c-37.7,10.5-61,24.7-66.6,40.4c-1.1,3.1-1.2,4-1.4,12.8l-0.2,9.6l86.5,0c86,0,86.5,0,83.2-0.9c-9.7-2.5-17.2-9.6-20.9-19.7c-0.9-2.3-1-3.9-1.2-13.1l-0.2-10.4l-19.2-0.2c-17.6-0.1-19.5-0.2-22.9-1.2c-11.6-3-20.3-7.8-28.6-15.8l-3.2-3.1L78.2,182.9z"/><path fill="rgb(147 51 234)" d="M216.4,210.7c0,7.6-0.1,9.8-0.9,12.7c-2.7,10.5-10.9,18.7-21.3,21.5l-3.4,0.9h27.5l27.6,0l-0.2-9.8c-0.2-10.4-0.5-11.7-3.1-16.9c-2.4-4.8-8.2-10.8-14.4-15.2l-3.3-2.3h-4.3h-4.3V210.7z"/></g></g></g>
</svg>