<svg xmlns="http://www.w3.org/2000/svg" xmlns:xlink="http://www.w3.org/1999/xlink" version="1.1" x="0px" y="0px" viewBox="0 0 256 256" enable-background="new 0 0 256 256" xml:space="preserve">
<metadata> Svg Vector Icons : http://www.onlinewebfonts.com/icon </metadata>
    <g><g><g><path fill="rgb(22 163 74)" d="M111,20.2c-1.6,0.2-3.7,0.7-4.7,1.1c-2.6,1.1-35.5,25.4-43.1,31.8c-4.6,3.8-5.1,4.9-3.7,7.8c2.7,5.6,13,9.5,21.7,8.2c5.9-0.9,12.9-4.6,24.4-12.7c10.8-7.7,13.6-9.1,16.6-8.3c1.2,0.3,6.6,6.4,56.6,63.7c8.6,9.9,15.8,18.1,15.8,18.2c0.1,0.1,1.5-0.4,3.3-1.1c1.7-0.6,4-1.4,5.2-1.6l2.1-0.3V86.4V45.8l-1.1-0.2c-6.5-1.4-20.5-5-24.8-6.3c-12.2-3.8-18.2-6.4-25.4-11.1c-6.3-4.1-12.7-6.4-21.3-7.4C127.5,20.1,114.8,19.8,111,20.2z"/><path fill="rgb(22 163 74)" d="M215.3,28.1c-0.6,0.2-1.4,0.9-1.9,1.6c-0.7,1-0.8,6.9-0.8,62.8v61.6l1.1,1.3l1.1,1.3l14.1,0c15.8,0,16.3-0.1,16.9-3.2c0.1-0.9,0.2-29,0.1-62.5l-0.1-60.9l-1.1-1.1c-1.1-1.1-1.3-1.1-14.8-1.2C222.5,27.7,215.8,27.9,215.3,28.1z"/><path fill="rgb(22 163 74)" d="M117.2,57c-3.1,1.7-11.4,7.7-11.2,8.1c0,0.2,5.1,6.2,11.2,13.3c6.1,7.1,27.4,31.9,47.4,55.2c19.9,23.2,36.4,42.3,36.5,42.3c0.7,0.3,5.4-4.5,6.5-6.7c1.7-3.3,1.8-7.9,0.3-11.2c-1.3-2.8-86.6-102.4-87.7-102.4C119.9,55.7,118.6,56.3,117.2,57z"/><path fill="rgb(22 163 74)" d="M32.6,77C22,86.1,12.8,94.4,12.1,95.4c-2.8,4-2.8,10.1,0,14.1c0.6,0.9,14,16.6,29.6,34.9c15.7,18.2,38.5,44.8,50.8,59.2c12.3,14.3,23.2,27,24.3,28.2c1.1,1.2,3,2.6,4.2,3.1c3,1.4,7.5,1.4,10.6,0.1c2.1-0.9,43.7-36,43.7-36.9c0-0.2-5.8-7.1-12.9-15.4c-7.1-8.3-30.6-35.6-52.2-60.8L70.7,76l-3.2-1.1C60.2,72.5,54.6,68,52.7,63l-0.9-2.5L32.6,77z M42.5,93.9c0.4,0.2,3.4,3.4,6.6,7.1c6.2,7.2,6.8,8.5,5.1,10.4c-1,1.1-2.7,1.1-4,0c-1.2-1-9.9-11.2-11.1-12.9c-1.1-1.6-1-2.3,0.4-3.7C40.8,93.5,41.2,93.4,42.5,93.9z M63.2,118c1.3,0.5,27.2,31,27.6,32.3c0.7,2.6-3,4.3-5.1,2.4c-0.9-0.8-23.4-27-25.6-29.8c-1.4-1.8-1.4-2.5,0.1-4C61.5,117.7,61.9,117.5,63.2,118z M131.1,172.9c1.1,0.5,16.9,18.3,19.1,21.6c1,1.4,1.1,4.3,0.3,6.1c-0.6,1.4-19,17.4-21.9,19.1c-2,1.2-5.1,1-6.7-0.4c-0.6-0.5-5-5.5-9.8-11.1c-9.6-11.2-10.1-12.1-8.5-15.5c0.6-1.3,4-4.5,10.5-10.2c5.3-4.5,10.3-8.7,11.1-9.2C126.9,172.2,129.3,172.1,131.1,172.9z"/><path fill="rgb(22 163 74)" d="M117.4,184.1c-4.7,4-8.9,7.9-9.4,8.5c-0.9,1.3-1,3.5-0.2,5c0.8,1.5,14,16.9,15.3,17.8c1.6,1.1,4.3,0.9,6.1-0.4c0.8-0.6,5-4,9.2-7.7c7.9-6.8,9-8.1,8.4-10.8c-0.2-1.3-12.3-15.9-15.3-18.7c-0.9-0.8-1.9-1.1-3.4-1.1C126.1,176.8,125.7,177.1,117.4,184.1z"/><path fill="rgb(22 163 74)" d="M97.8,70.2c-5.9,3.6-12.6,5.7-19.9,6.3l-1.7,0.1l12.5,14.5c6.8,8,29.8,34.8,51,59.5c21.2,24.7,38.7,44.9,38.9,44.8s4.7-3.9,10-8.5l9.6-8.3l-14.9-17.3c-8.2-9.5-29.6-34.5-47.7-55.6c-18.1-21-33-38.2-33.2-38.2C102.3,67.5,100.2,68.7,97.8,70.2z"/></g></g></g>
</svg>